<mxfile host="Electron" modified="2024-09-29T11:13:32.594Z" agent="Mozilla/5.0 (Windows NT 10.0; Win64; x64) AppleWebKit/537.36 (KHTML, like Gecko) draw.io/22.0.2 Chrome/114.0.5735.289 Electron/25.8.4 Safari/537.36" etag="pray6RA0_somJo1RWu-l" version="22.0.2" type="device">
  <diagram name="第 1 页" id="6T46y0VLSyn54p2SpWcH">
    <mxGraphModel dx="794" dy="557" grid="1" gridSize="10" guides="1" tooltips="1" connect="1" arrows="1" fold="1" page="1" pageScale="1" pageWidth="1169" pageHeight="827" math="0" shadow="0">
      <root>
        <mxCell id="0" />
        <mxCell id="1" parent="0" />
        <mxCell id="zMxJg4ONIbfp27AHNzBP-24" value="" style="edgeStyle=orthogonalEdgeStyle;rounded=0;orthogonalLoop=1;jettySize=auto;html=1;entryX=0.5;entryY=0;entryDx=0;entryDy=0;" edge="1" parent="1" source="zMxJg4ONIbfp27AHNzBP-22" target="zMxJg4ONIbfp27AHNzBP-29">
          <mxGeometry relative="1" as="geometry">
            <mxPoint x="540" y="130" as="targetPoint" />
          </mxGeometry>
        </mxCell>
        <mxCell id="zMxJg4ONIbfp27AHNzBP-22" value="启动" style="rounded=1;whiteSpace=wrap;html=1;glass=0;rotation=0;arcSize=50;" vertex="1" parent="1">
          <mxGeometry x="490" y="50" width="100" height="30" as="geometry" />
        </mxCell>
        <mxCell id="zMxJg4ONIbfp27AHNzBP-26" value="" style="edgeStyle=orthogonalEdgeStyle;rounded=0;orthogonalLoop=1;jettySize=auto;html=1;exitX=0.5;exitY=1;exitDx=0;exitDy=0;" edge="1" parent="1" source="zMxJg4ONIbfp27AHNzBP-29" target="zMxJg4ONIbfp27AHNzBP-25">
          <mxGeometry relative="1" as="geometry">
            <mxPoint x="540" y="170" as="sourcePoint" />
          </mxGeometry>
        </mxCell>
        <mxCell id="zMxJg4ONIbfp27AHNzBP-28" value="YES" style="edgeStyle=orthogonalEdgeStyle;rounded=0;orthogonalLoop=1;jettySize=auto;html=1;" edge="1" parent="1" source="zMxJg4ONIbfp27AHNzBP-25" target="zMxJg4ONIbfp27AHNzBP-27">
          <mxGeometry x="0.3333" relative="1" as="geometry">
            <mxPoint as="offset" />
          </mxGeometry>
        </mxCell>
        <mxCell id="zMxJg4ONIbfp27AHNzBP-31" style="edgeStyle=orthogonalEdgeStyle;rounded=0;orthogonalLoop=1;jettySize=auto;html=1;entryX=0.5;entryY=0;entryDx=0;entryDy=0;" edge="1" parent="1" source="zMxJg4ONIbfp27AHNzBP-25" target="zMxJg4ONIbfp27AHNzBP-33">
          <mxGeometry relative="1" as="geometry">
            <mxPoint x="650" y="290" as="targetPoint" />
          </mxGeometry>
        </mxCell>
        <mxCell id="zMxJg4ONIbfp27AHNzBP-32" value="NO" style="edgeLabel;html=1;align=center;verticalAlign=middle;resizable=0;points=[];" vertex="1" connectable="0" parent="zMxJg4ONIbfp27AHNzBP-31">
          <mxGeometry x="0.4231" y="-1" relative="1" as="geometry">
            <mxPoint as="offset" />
          </mxGeometry>
        </mxCell>
        <mxCell id="zMxJg4ONIbfp27AHNzBP-25" value="是否存在" style="rhombus;whiteSpace=wrap;html=1;" vertex="1" parent="1">
          <mxGeometry x="490" y="190" width="100" height="60" as="geometry" />
        </mxCell>
        <mxCell id="zMxJg4ONIbfp27AHNzBP-42" style="edgeStyle=orthogonalEdgeStyle;rounded=0;orthogonalLoop=1;jettySize=auto;html=1;entryX=0.5;entryY=0;entryDx=0;entryDy=0;" edge="1" parent="1" source="zMxJg4ONIbfp27AHNzBP-27" target="zMxJg4ONIbfp27AHNzBP-41">
          <mxGeometry relative="1" as="geometry" />
        </mxCell>
        <mxCell id="zMxJg4ONIbfp27AHNzBP-27" value="返回主页面" style="rounded=0;whiteSpace=wrap;html=1;" vertex="1" parent="1">
          <mxGeometry x="380" y="290" width="100" height="30" as="geometry" />
        </mxCell>
        <mxCell id="zMxJg4ONIbfp27AHNzBP-29" value="用户信息输入" style="shape=parallelogram;perimeter=parallelogramPerimeter;whiteSpace=wrap;html=1;fixedSize=1;" vertex="1" parent="1">
          <mxGeometry x="480" y="120" width="120" height="40" as="geometry" />
        </mxCell>
        <mxCell id="zMxJg4ONIbfp27AHNzBP-35" style="edgeStyle=orthogonalEdgeStyle;rounded=0;orthogonalLoop=1;jettySize=auto;html=1;entryX=0;entryY=0.5;entryDx=0;entryDy=0;" edge="1" parent="1" source="zMxJg4ONIbfp27AHNzBP-33" target="zMxJg4ONIbfp27AHNzBP-34">
          <mxGeometry relative="1" as="geometry" />
        </mxCell>
        <mxCell id="zMxJg4ONIbfp27AHNzBP-36" value="NO" style="edgeLabel;html=1;align=center;verticalAlign=middle;resizable=0;points=[];" vertex="1" connectable="0" parent="zMxJg4ONIbfp27AHNzBP-35">
          <mxGeometry x="-0.1143" y="1" relative="1" as="geometry">
            <mxPoint y="1" as="offset" />
          </mxGeometry>
        </mxCell>
        <mxCell id="zMxJg4ONIbfp27AHNzBP-39" style="edgeStyle=orthogonalEdgeStyle;rounded=0;orthogonalLoop=1;jettySize=auto;html=1;exitX=0.5;exitY=1;exitDx=0;exitDy=0;" edge="1" parent="1" source="zMxJg4ONIbfp27AHNzBP-33" target="zMxJg4ONIbfp27AHNzBP-37">
          <mxGeometry relative="1" as="geometry" />
        </mxCell>
        <mxCell id="zMxJg4ONIbfp27AHNzBP-40" value="YES" style="edgeLabel;html=1;align=center;verticalAlign=middle;resizable=0;points=[];" vertex="1" connectable="0" parent="zMxJg4ONIbfp27AHNzBP-39">
          <mxGeometry x="-0.1525" relative="1" as="geometry">
            <mxPoint as="offset" />
          </mxGeometry>
        </mxCell>
        <mxCell id="zMxJg4ONIbfp27AHNzBP-33" value="注册还是退出" style="rhombus;whiteSpace=wrap;html=1;" vertex="1" parent="1">
          <mxGeometry x="600" y="280" width="100" height="60" as="geometry" />
        </mxCell>
        <mxCell id="zMxJg4ONIbfp27AHNzBP-34" value="退出应用" style="rounded=1;whiteSpace=wrap;html=1;glass=0;rotation=0;arcSize=50;" vertex="1" parent="1">
          <mxGeometry x="770" y="295" width="100" height="30" as="geometry" />
        </mxCell>
        <mxCell id="zMxJg4ONIbfp27AHNzBP-45" style="edgeStyle=orthogonalEdgeStyle;rounded=0;orthogonalLoop=1;jettySize=auto;html=1;exitX=0.5;exitY=1;exitDx=0;exitDy=0;entryX=1;entryY=0.5;entryDx=0;entryDy=0;" edge="1" parent="1" source="zMxJg4ONIbfp27AHNzBP-37" target="zMxJg4ONIbfp27AHNzBP-44">
          <mxGeometry relative="1" as="geometry" />
        </mxCell>
        <mxCell id="zMxJg4ONIbfp27AHNzBP-37" value="返回注册页面" style="rounded=0;whiteSpace=wrap;html=1;" vertex="1" parent="1">
          <mxGeometry x="600" y="399" width="100" height="30" as="geometry" />
        </mxCell>
        <mxCell id="zMxJg4ONIbfp27AHNzBP-46" style="edgeStyle=orthogonalEdgeStyle;rounded=0;orthogonalLoop=1;jettySize=auto;html=1;exitX=0.5;exitY=1;exitDx=0;exitDy=0;entryX=0;entryY=0.5;entryDx=0;entryDy=0;" edge="1" parent="1" source="zMxJg4ONIbfp27AHNzBP-41" target="zMxJg4ONIbfp27AHNzBP-44">
          <mxGeometry relative="1" as="geometry" />
        </mxCell>
        <mxCell id="zMxJg4ONIbfp27AHNzBP-41" value="增删改查操作" style="rounded=0;whiteSpace=wrap;html=1;" vertex="1" parent="1">
          <mxGeometry x="380" y="399" width="100" height="30" as="geometry" />
        </mxCell>
        <mxCell id="zMxJg4ONIbfp27AHNzBP-44" value="退出" style="rounded=1;whiteSpace=wrap;html=1;glass=0;rotation=0;arcSize=50;" vertex="1" parent="1">
          <mxGeometry x="490" y="520" width="100" height="30" as="geometry" />
        </mxCell>
        <mxCell id="zMxJg4ONIbfp27AHNzBP-50" value="" style="endArrow=classic;html=1;rounded=0;exitX=1;exitY=0.5;exitDx=0;exitDy=0;entryX=1;entryY=0.5;entryDx=0;entryDy=0;" edge="1" parent="1" target="zMxJg4ONIbfp27AHNzBP-29">
          <mxGeometry width="50" height="50" relative="1" as="geometry">
            <mxPoint x="700" y="419" as="sourcePoint" />
            <mxPoint x="620" y="140" as="targetPoint" />
            <Array as="points">
              <mxPoint x="950" y="420" />
              <mxPoint x="950" y="140" />
            </Array>
          </mxGeometry>
        </mxCell>
        <mxCell id="zMxJg4ONIbfp27AHNzBP-51" value="" style="endArrow=classic;html=1;rounded=0;exitX=0;exitY=0.5;exitDx=0;exitDy=0;entryX=0;entryY=0.5;entryDx=0;entryDy=0;" edge="1" parent="1" source="zMxJg4ONIbfp27AHNzBP-41" target="zMxJg4ONIbfp27AHNzBP-27">
          <mxGeometry width="50" height="50" relative="1" as="geometry">
            <mxPoint x="290" y="400" as="sourcePoint" />
            <mxPoint x="370" y="300" as="targetPoint" />
            <Array as="points">
              <mxPoint x="310" y="414" />
              <mxPoint x="310" y="305" />
            </Array>
          </mxGeometry>
        </mxCell>
      </root>
    </mxGraphModel>
  </diagram>
</mxfile>
